<svg width="423" height="428" viewBox="0 0 423 428" fill="none" xmlns="http://www.w3.org/2000/svg">
<path d="M313.679 243.9V291H125.579V253.8L231.479 128.1H128.279V81H309.179V118.2L203.279 243.9H313.679Z" fill="white"/>
<path d="M323.877 323.932C324.661 322.755 325.347 322.107 325.936 321.989C326.524 321.871 327.132 322.361 327.76 323.459C328.585 324.518 329.056 325.341 329.174 325.93C330.982 334.95 328.614 343.482 322.068 351.527C310.504 366.084 294.133 375.486 272.955 379.733C251.776 383.98 229.635 383.423 206.529 378.061C183.228 372.738 162.181 364.414 143.387 353.088C124.358 341.605 107.956 327.964 94.1802 312.164C80.3655 296.168 71.846 280.13 68.6215 264.05C68.2676 262.285 69.2672 261.167 71.6204 260.695C73.7774 260.262 75.935 260.85 78.0931 262.457C91.1643 281.865 106.646 298.547 124.539 312.502C142.393 326.26 160.421 336.311 178.624 342.656C215.696 355.62 249.038 359.134 278.648 353.196C304.141 348.084 319.217 338.329 323.877 323.932Z" fill="white"/>
</svg>
