<svg width="423" height="428" viewBox="0 0 423 428" fill="none" xmlns="http://www.w3.org/2000/svg">
<path d="M313.233 243.9V291H125.133V253.8L231.033 128.1H127.833V81H308.733V118.2L202.833 243.9H313.233Z" fill="black"/>
<path d="M323.432 323.932C324.216 322.755 324.902 322.107 325.49 321.989C326.078 321.871 326.686 322.361 327.315 323.459C328.139 324.518 328.61 325.341 328.728 325.93C330.537 334.95 328.168 343.482 321.622 351.527C310.058 366.084 293.687 375.486 272.509 379.733C251.331 383.98 229.189 383.423 206.084 378.061C182.782 372.738 161.735 364.414 142.941 353.088C123.912 341.605 107.51 327.964 93.7344 312.164C79.9197 296.168 71.4002 280.13 68.1757 264.05C67.8218 262.285 68.8214 261.167 71.1746 260.695C73.3316 260.262 75.4892 260.85 77.6473 262.457C90.7185 281.865 106.201 298.547 124.093 312.502C141.947 326.26 159.975 336.311 178.178 342.656C215.25 355.62 248.592 359.134 278.202 353.196C303.695 348.084 318.771 338.329 323.432 323.932Z" fill="black"/>
</svg>
